#!OML:ASF F:\twosubjects\two\wednesday\Session 1\rory1.ASF
:FULLY-SPECIFIED
:DEGREES
83
root 17.2551 18.6091 9.85547 -174.916 -0.10639 182.243
lowerback 1.58757 1.73126 1.58947
upperback 0.531543 2.30051 1.43038
thorax -0.34076 1.13303 0.531831
lowerneck -14.2211 -2.24459 -2.67749
upperneck 16.0896 -2.27704 -2.55289
head 7.28865 -1.59434 -0.642737
rclavicle -4.74598e-015 2.22639e-014
rhumerus -34.633 -20.5489 -73.4884
rradius 25.1177
rwrist 10.0326
rhand -11.4173 26.0588
rfingers 7.12502
rthumb 14.6184 -3.40601
lclavicle -4.74598e-015 2.22639e-014
lhumerus -41.7059 12.1534 80.3828
lradius 22.6627
lwrist -3.91381
lhand -25.5977 22.5045
lfingers 7.12502
lthumb 0.934327 52.4822
rfemur -13.6864 7.99097 25.8521
rtibia 27.9252
rfoot -15.3308 -5.05607
rtoes 13.0279
lfemur -25.7083 -0.28903 -16.5871
ltibia 64.2983
lfoot -2.86007 -2.10573
ltoes -14.6926
84
root 17.2697 18.5901 9.71676 -174.886 -0.0493446 181.925
lowerback 1.6914 1.75999 1.28553
upperback 0.523071 2.40658 1.23711
thorax -0.412321 1.21626 0.497881
lowerneck -14.0691 -2.32667 -2.76293
upperneck 15.8546 -2.39717 -2.4052
head 7.18824 -1.63466 -0.587513
rclavicle -7.15625e-015 -8.94531e-015
rhumerus -34.4413 -20.0321 -73.9114
rradius 25.5357
rwrist 8.9834
rhand -11.3113 25.7676
rfingers 7.12502
rthumb 14.7206 -3.6897
lclavicle -7.15625e-015 -8.94531e-015
lhumerus -41.9229 12.1318 80.1332
lradius 22.5827
lwrist -3.8631
lhand -24.3964 22.8813
lfingers 7.12502
lthumb 2.09457 52.8508
rfemur -13.3415 8.0192 25.6292
rtibia 28.1795
rfoot -15.9188 -5.22891
rtoes 12.0154
lfemur -26.5598 -0.41333 -17.006
ltibia 63.7254
lfoot -4.15883 -1.9035
ltoes -15.603
85
root 17.2842 18.5751 9.57553 -174.84 0.058119 181.796
lowerback 1.6266 1.86687 1.08505
upperback 0.589145 2.54053 1.16203
thorax -0.313595 1.28262 0.534241
lowerneck -13.9129 -2.41531 -2.94726
upperneck 15.5824 -2.51045 -2.22695
head 7.0776 -1.67433 -0.505141
rclavicle 4.5969e-015 7.95139e-015
rhumerus -34.0552 -19.7301 -74.223
rradius 25.7931
rwrist 8.28317
rhand -12.326 26.5192
rfingers 7.12502
rthumb 13.7428 -3.00694
lclavicle 4.5969e-015 7.95139e-015
lhumerus -41.9648 12.3003 79.9634
lradius 22.3863
lwrist -3.49541
lhand -23.7196 23.4245
lfingers 7.12502
lthumb 2.74816 53.3865
rfemur -12.9912 7.85836 25.6003
rtibia 28.4451
rfoot -16.4248 -5.05008
rtoes 11.6006
lfemur -27.5065 -0.554676 -17.1439
ltibia 62.9409
lfoot -5.46381 -2.00171
ltoes -14.688
86
root 17.2961 18.5617 9.43781 -174.755 0.237086 182.202
lowerback 1.67149 1.94118 1.45178
upperback 0.563225 2.65141 1.23158
thorax -0.352182 1.33973 0.396535
lowerneck -13.798 -2.43869 -3.22548
upperneck 15.453 -2.5371 -1.92325
head 7.02376 -1.67108 -0.360795
rclavicle -3.10601e-015 3.57812e-015
rhumerus -33.7981 -19.3847 -74.4724
rradius 26.0999
rwrist 7.96204
rhand -14.202 29.3101
rfingers 7.12502
rthumb 11.9344 -0.329672
lclavicle -3.10601e-015 3.57812e-015
lhumerus -42.1913 13.0654 79.4096
lradius 22.1521
lwrist -3.7402
lhand -24.5591 22.8527
lfingers 7.12502
lthumb 1.93736 52.8236
rfemur -12.6473 7.57062 26.1518
rtibia 28.6369
rfoot -16.69 -4.40599
rtoes 14.1269
lfemur -28.5195 -0.477485 -16.691
ltibia 62.0648
lfoot -6.59683 -2.09197
ltoes -14.6459
87
root 17.309 18.5563 9.29684 -174.755 0.337611 182.629
lowerback 1.91196 1.98241 1.86875
upperback 0.481517 2.72526 1.26
thorax -0.55225 1.37639 0.180451
lowerneck -13.6522 -2.44047 -3.23758
upperneck 15.2845 -2.56106 -1.79519
head 6.94559 -1.66608 -0.315525
rclavicle 3.39922e-014 -5.56597e-015
rhumerus -33.7764 -18.678 -74.9205
rradius 26.7388
rwrist 7.34611
rhand -14.3023 29.9598
rfingers 7.12502
rthumb 11.8376 0.314356
lclavicle 3.39922e-014 -5.56597e-015
lhumerus -42.5959 13.4908 78.9214
lradius 22.0723
lwrist -3.79098
lhand -24.4745 24.3178
lfingers 7.12502
lthumb 2.01909 54.288
rfemur -12.1578 7.34016 26.7692
rtibia 28.6753
rfoot -16.9341 -4.16746
rtoes 15.4577
lfemur -29.3301 -0.427078 -16.225
ltibia 61.0725
lfoot -7.29277 -1.76975
ltoes -15.493
88
root 17.3239 18.5512 9.15115 -174.671 0.336341 182.66
lowerback 1.97888 1.96101 1.87002
upperback 0.42482 2.69537 1.16651
thorax -0.643474 1.35894 0.0809248
lowerneck -13.5663 -2.4011 -3.02758
upperneck 15.096 -2.53729 -1.86463
head 6.86527 -1.64265 -0.36603
rclavicle -3.14577e-014 -1.03368e-014
rhumerus -33.5375 -17.7212 -75.6303
rradius 27.3512
rwrist 6.45146
rhand -13.3907 28.7949
rfingers 7.12502
rthumb 12.7166 -0.797888
lclavicle -3.14577e-014 -1.03368e-014
lhumerus -42.9035 13.4971 78.6939
lradius 22.1374
lwrist -3.41842
lhand -23.8153 26.0043
lfingers 7.12502
lthumb 2.65572 55.9675
rfemur -11.6684 7.44975 26.9653
rtibia 28.5562
rfoot -17.1699 -4.74819
rtoes 13.6933
lfemur -30.1537 -0.529953 -16.1965
ltibia 59.9284
lfoot -7.75898 -1.42466
ltoes -15.4775
89
root 17.336 18.5383 9.00994 -174.601 0.42338 182.757
lowerback 1.96315 1.9153 1.92422
upperback 0.503102 2.63391 1.13858
thorax -0.551471 1.32945 0.0260445
lowerneck -13.6887 -2.36582 -2.90555
upperneck 14.8966 -2.48726 -1.93439
head 6.81903 -1.6103 -0.402448
rclavicle 4.14963e-015 6.16232e-015
rhumerus -32.9308 -16.9985 -76.2632
rradius 27.665
rwrist 6.04698
rhand -13.3506 28.6847
rfingers 7.12502
rthumb 12.7552 -0.905678
lclavicle 4.14963e-015 6.16232e-015
lhumerus -42.8954 13.8497 78.4638
lradius 22.07
lwrist -3.26316
lhand -23.0824 26.4001
lfingers 7.12502
lthumb 3.3635 56.3533
rfemur -11.0842 7.56275 27.1909
rtibia 28.3221
rfoot -17.2887 -5.10778
rtoes 12.5027
lfemur -30.893 -0.499266 -16.1101
ltibia 58.6798
lfoot -8.17417 -1.73457
ltoes -13.9001
90
root 17.3422 18.5298 8.86882 -174.666 0.600671 183.077
lowerback 2.05001 1.98803 2.23704
upperback 0.663796 2.7429 1.1642
thorax -0.420713 1.3884 -0.123902
lowerneck -13.8414 -2.47632 -2.83432
upperneck 14.6507 -2.63182 -1.94358
head 6.76521 -1.66682 -0.43003
rclavicle 6.4605e-015 -1.03368e-014
rhumerus -32.4313 -16.604 -76.6266
rradius 28.0184
rwrist 5.72495
rhand -13.5825 29.1415
rfingers 7.12502
rthumb 12.5317 -0.462701
lclavicle 6.4605e-015 -1.03368e-014
lhumerus -42.7227 14.4103 78.1327
lradius 21.8486
lwrist -3.69075
lhand -22.412 27.4324
lfingers 7.12502
lthumb 4.01097 57.3744
rfemur -10.3174 7.30256 27.6252
rtibia 27.9904
rfoot -17.3949 -4.86145
rtoes 12.6637
lfemur -31.3835 -0.427481 -15.7665
ltibia 57.2916
lfoot -8.50914 -1.98851
ltoes -13.2271
91
root 17.3448 18.5245 8.72484 -174.694 0.635138 183.231
lowerback 2.17686 2.09911 2.51591
upperback 0.702122 2.8989 1.04453
thorax -0.429531 1.46648 -0.408891
lowerneck -13.6126 -2.60167 -2.75768
upperneck 14.3116 -2.84192 -1.8028
head 6.61783 -1.74083 -0.409834
rclavicle 5.28022e-015 1.00386e-014
rhumerus -32.298 -16.0899 -77.0228
rradius 28.5886
rwrist 5.08857
rhand -14.5392 31.558
rfingers 7.12502
rthumb 11.6091 1.89953
lclavicle 5.28022e-015 1.00386e-014
lhumerus -42.756 14.5143 77.8104
lradius 21.7945
lwrist -4.05518
lhand -22.7809 26.7509
lfingers 7.12502
lthumb 3.65471 56.6993
rfemur -9.54585 7.05339 27.8805
rtibia 27.5541
rfoot -17.3217 -4.92162
rtoes 11.486
lfemur -31.8679 -0.614138 -15.6042
ltibia 55.7371
lfoot -8.87899 -1.53391
ltoes -14.8892
92
root 17.3446 18.5224 8.58001 -174.565 0.634512 183.213
lowerback 2.19129 2.14971 2.68523
upperback 0.655092 2.96524 0.86976
thorax -0.466165 1.49684 -0.684822
lowerneck -13.2316 -2.61458 -2.7646
upperneck 13.8606 -2.89989 -1.58366
head 6.41126 -1.73887 -0.332731
rclavicle 1.30825e-014 -2.38542e-015
rhumerus -32.2226 -15.4445 -77.4819
rradius 29.1994
rwrist 4.5996
rhand -14.9165 33.2356
rfingers 7.12502
rthumb 11.2453 3.55697
lclavicle 1.30825e-014 -2.38542e-015
lhumerus -42.9276 14.2726 77.6624
lradius 21.9689
lwrist -3.78806
lhand -23.0991 25.5624
lfingers 7.12502
lthumb 3.34736 55.5158
rfemur -8.93411 6.68017 27.9104
rtibia 27.0696
rfoot -17.0594 -5.07854
rtoes 9.35899
lfemur -32.462 -0.823033 -15.6646
ltibia 54.0066
lfoot -9.14167 -1.01528
ltoes -15.8882
93
root 17.3506 18.5324 8.43708 -174.423 0.708714 183.197
lowerback 2.17015 2.14585 2.63048
upperback 0.70907 2.95718 0.853604
thorax -0.401179 1.49414 -0.668353
lowerneck -13.3288 -2.59562 -2.72423
upperneck 13.5933 -2.85239 -1.70064
head 6.33995 -1.71644 -0.370318
rclavicle -2.90723e-015 -8.15017e-015
rhumerus -31.8409 -14.9469 -77.8085
rradius 29.7868
rwrist 4.41677
rhand -14.2499 32.6597
rfingers 7.12502
rthumb 11.8881 3.0172
lclavicle -2.90723e-015 -8.15017e-015
lhumerus -42.897 14.455 77.6149
lradius 21.982
lwrist -3.48881
lhand -23.4029 25.5142
lfingers 7.12502
lthumb 3.05398 55.4721
rfemur -8.34785 6.41226 27.9566
rtibia 26.5769
rfoot -16.9797 -5.00513
rtoes 9.30338
lfemur -32.9642 -0.900021 -15.6848
ltibia 52.0874
lfoot -9.1252 -0.665486
ltoes -15.6827
94
root 17.3624 18.5465 8.29513 -174.366 0.749089 183.302
lowerback 2.24751 2.16468 2.58734
upperback 0.775534 2.98678 0.921596
thorax -0.381343 1.51116 -0.577151
lowerneck -13.5585 -2.65782 -2.71886
upperneck 13.5225 -2.89885 -1.87371
head 6.35425 -1.75098 -0.43336
rclavicle -2.33572e-015 4.87022e-015
rhumerus -31.4929 -14.6711 -77.9906
rradius 30.3148
rwrist 4.41085
rhand -14.1229 32.6696
rfingers 7.12502
rthumb 12.0106 3.0342
lclavicle -2.33572e-015 4.87022e-015
lhumerus -42.8313 14.6375 77.6762
lradius 21.971
lwrist -3.13359
lhand -24.661 26.1064
lfingers 7.12502
lthumb 1.83901 56.0782
rfemur -7.64629 6.82627 28.1994
rtibia 26.0666
rfoot -17.0519 -5.01813
rtoes 11.8014
lfemur -33.281 -1.02492 -15.5062
ltibia 50.0072
lfoot -9.07333 -0.277571
ltoes -15.3548
95
root 17.3679 18.5588 8.14836 -174.32 0.815496 183.413
lowerback 2.31987 2.20505 2.71038
upperback 0.773581 3.04643 0.903075
thorax -0.414687 1.54094 -0.669021
lowerneck -13.4986 -2.67395 -2.93115
upperneck 13.4027 -2.91458 -1.62822
head 6.31295 -1.74516 -0.319839
rclavicle -2.92773e-014 1.19271e-015
rhumerus -31.3195 -14.0888 -78.3038
rradius 30.7803
rwrist 4.26378
rhand -14.6291 32.9663
rfingers 7.12502
rthumb 11.5225 3.30298
lclavicle -2.92773e-014 1.19271e-015
lhumerus -42.9906 14.5009 77.7418
lradius 22.2957
lwrist -2.53473
lhand -25.4581 26.7435
lfingers 7.12502
lthumb 1.06914 56.7205
rfemur -6.89902 7.0072 28.4033
rtibia 25.5192
rfoot -16.9638 -4.87412
rtoes 13.6322
lfemur -33.4841 -1.16205 -15.3524
ltibia 47.7978
lfoot -9.21655 0.119355
ltoes -14.3545
96
root 17.3724 18.5713 8.00009 -174.285 0.952949 183.266
lowerback 2.40293 2.26907 2.6099
upperback 0.736872 3.1273 0.767482
thorax -0.493957 1.57811 -0.758232
lowerneck -13.2124 -2.62341 -3.04257
upperneck 13.1825 -2.86923 -1.39383
head 6.1989 -1.70448 -0.216232
rclavicle -2.34255e-014 -4.12478e-015
rhumerus -31.2382 -13.36 -78.7235
rradius 31.2855
rwrist 3.90778
rhand -15.101 32.632
rfingers 7.12502
rthumb 11.0673 2.94384
lclavicle -2.34255e-014 -4.12478e-015
lhumerus -43.1711 14.1751 77.8155
lradius 22.5225
lwrist -1.95922
lhand -25.5562 26.609
lfingers 7.12502
lthumb 0.974369 56.5865
rfemur -6.13628 6.56072 28.2736
rtibia 24.902
rfoot -16.678 -4.66616
rtoes 13.2722
lfemur -33.622 -1.34345 -15.4801
ltibia 45.5011
lfoot -9.3335 0.690497
ltoes -12.0526
97
root 17.3785 18.5768 7.85082 -174.172 1.12436 183.057
lowerback 2.42818 2.38431 2.40979
upperback 0.673396 3.26985 0.582987
thorax -0.568874 1.64521 -0.841772
lowerneck -12.9234 -2.64903 -2.94891
upperneck 12.9103 -2.94128 -1.32452
head 6.06308 -1.72301 -0.208657
rclavicle -1.83713e-014 -7.41094e-015
rhumerus -31.2604 -13.0177 -79.0245
rradius 31.7528
rwrist 3.53389
rhand -15.2655 32.733
rfingers 7.12502
rthumb 10.9086 3.03634
lclavicle -1.83713e-014 -7.41094e-015
lhumerus -43.1987 13.9651 77.7877
lradius 22.4367
lwrist -1.85427
lhand -25.4487 26.9796
lfingers 7.12502
lthumb 1.07817 56.9566
rfemur -5.37957 6.33615 28.0703
rtibia 24.1602
rfoot -16.3118 -4.73593
rtoes 12.6523
lfemur -33.7662 -1.60121 -15.6384
ltibia 43.1789
lfoot -9.30712 1.34786
ltoes -12.8933
